<mxfile host="app.diagrams.net" modified="2023-10-05T13:49:05.836Z" agent="Mozilla/5.0 (X11; Linux x86_64) AppleWebKit/537.36 (KHTML, like Gecko) Chrome/117.0.0.0 Safari/537.36" version="22.0.2" etag="Dw6LHBnUGbX_E8McVola" type="github">
  <diagram name="Page-1" id="pAZ6r2IIPBKwRkxcg3-5">
    <mxGraphModel>
      <root>
        <mxCell id="0" />
        <mxCell id="1" parent="0" />
      </root>
    </mxGraphModel>
  </diagram>
</mxfile>
